<svg width="144" height="123" viewBox="0 0 144 123" fill="none" xmlns="http://www.w3.org/2000/svg">
<path fill-rule="evenodd" clip-rule="evenodd" d="M28.4717 2.53989C28.443 2.60205 24.0113 12.2672 33.5528 27.2127C50.2773 53.4092 107.147 95.3821 107.213 95.4305L70.9268 122.282C70.8638 122.238 19.3922 85.9816 5.97465 60.9598C-2.94171 44.332 -0.193856 35.1974 3.43461 30.117C6.28843 26.1214 28.3817 2.63556 28.4717 2.53989ZM64.7579 109.895L71.2891 114.3L77.458 109.895L70.9268 105.281L64.7579 109.895ZM47.7041 97.6083L53.8731 102.326L58.9532 97.9715L52.7842 93.0731L47.7041 97.6083ZM84.3526 94.9657L90.1582 99.4227L96.3262 94.7059L90.5205 90.3514L84.3526 94.9657ZM32.8272 85.6346L38.6329 90.3514L43.3311 86.3397L37.5254 80.9022L32.8272 85.6346ZM115.195 2.17661C115.195 2.17661 137.817 25.6438 139.868 30.117C143.86 38.8256 147.97 48.218 136.603 63.2772C120.274 84.9084 111.295 90.1297 111.295 90.1297L75.0088 63.2772C75.0747 63.2449 91.9509 54.9669 108.652 28.8065C118.225 13.8125 115.195 2.17661 115.195 2.17661ZM66.9346 81.8231L73.1026 86.7225L78.5459 81.8231L72.377 76.9256L66.9346 81.8231ZM21.2159 74.0233L26.4502 79.0165L31.0127 74.7489L25.5704 69.6688L21.2159 74.0233ZM52.42 68.2167L57.8623 73.2967L63.3057 68.2157L57.5 63.4999L52.42 68.2167ZM13.2354 62.5829L16.8614 67.4911L21.5782 63.1375L17.5899 58.2284L13.2354 62.5829ZM40.083 56.243L45.1631 61.3231L50.2432 56.6053L44.8008 51.5252L40.083 56.243ZM7.06938 50.4315L9.60258 55.5174L13.9532 51.1668L11.0166 46.4872L7.06938 50.4315ZM29.958 44.1004L34.2784 48.9862L38.9952 44.2684L34.6748 39.3827L29.958 44.1004ZM4.15141 38.4725L4.88578 42.454L8.86723 38.8485L8.14555 34.4784L4.15141 38.4725ZM71.6045 15.5213C74.1048 12.6756 91.0181 -5.63547 106.1 1.73618C111.419 4.33672 109.674 15.3766 107.934 15.8866C80.7555 23.852 71.6894 41.5738 71.6514 41.6483L71.6397 40.8534L71.628 41.7264C71.5934 41.6587 62.529 23.9317 35.3457 15.9647C33.6059 15.4541 31.8607 4.41479 37.1797 1.81431C52.1284 -5.49261 68.8757 12.4337 71.6045 15.5213ZM23.0254 31.9344L25.9317 37.3749L30.6485 33.0204L27.3838 27.5838L23.0254 31.9344ZM19.7627 20.6825L20.8545 25.0389L25.2061 20.6268L24.0137 16.2665L19.7627 20.6825Z" fill="white"/>
</svg>
