<svg width="276" height="157" viewBox="0 0 276 157" fill="none" xmlns="http://www.w3.org/2000/svg">
<path d="M143.408 71.536C141.63 70.6925 139.15 69.3885 136.343 67.4656C133.534 65.5412 131.774 64.3362 130.087 62.2385C128.864 60.7149 126.77 57.5923 125.821 52.3119C125.695 50.1071 125.754 46.1395 127.543 41.9043C128.297 40.1201 129.184 38.6984 129.99 37.6136C129.91 37.9069 129.596 39.1714 130.187 40.4439C130.493 41.1007 130.918 41.4986 131.181 41.7049C131.819 40.4464 132.453 39.0509 133.05 37.5148C134.393 34.0606 135.175 30.8318 135.641 28.0949C135.818 28.7171 136.334 30.2321 137.68 31.2238C138.111 31.5424 138.533 31.7362 138.892 31.8588C138.892 31.8588 139.682 31.0995 139.713 31.0687C140.799 30.0195 140.56 26.3583 140.56 26.3538C140.797 24.725 141.338 22.4256 142.661 20.0832C145.899 14.3485 151.294 12.8143 152.681 12.4683C150.228 15.0814 149.148 18.8836 149.902 22.4238C150.745 26.3773 153.519 28.337 154.091 28.7213C155.296 28.0843 156.502 27.4474 157.708 26.8104C157.888 26.733 159.581 25.9759 160.046 24.0131C160.462 22.2473 159.708 20.2522 158.151 19.2047C159.094 19.5919 160.035 19.9791 160.978 20.3663C162.568 21.6171 163.47 22.9989 163.985 24.0054C167.313 30.5051 163.24 38.4099 162.951 38.9516C162.22 41.788 162.697 44.4349 164.136 45.5741C164.439 45.8149 164.919 46.0933 165.637 46.1805C166.37 45.8496 166.836 45.3961 167.122 45.0438C168.377 43.503 168.559 40.9766 167.72 38.5204C168.536 39.4158 171.107 42.4604 171.641 47.3589C172.052 51.1294 171.047 54.0702 170.535 55.3335C169.94 57.2991 168.382 61.573 164.623 65.2514C161.147 68.6506 157.534 69.835 155.752 70.2788C156.172 68.2428 157.221 61.9658 154.419 55.2269C152.553 50.7382 149.807 48.0408 148.264 46.7378C148.598 48.4795 148.893 51.2754 147.883 54.1342C146.373 58.4097 143.227 59.1972 142.168 63.0062C141.707 64.6646 141.503 67.3871 143.408 71.536Z" fill="white"/>
<path d="M134.725 102.568C135.445 104.587 134.467 106.942 132.512 107.891L37.5209 154.046C35.4693 155.043 33.1407 154.112 32.3842 151.993L29.9133 145.072C29.1925 143.052 30.171 140.698 32.1258 139.748L127.117 93.5935C129.169 92.5967 131.497 93.5274 132.254 95.6466L134.725 102.568Z" fill="white"/>
<path d="M147.93 92.7084C149.304 98.9272 144.801 106.079 136.152 109.78C133.18 111.052 129.167 111.368 126.572 111.348C121.614 111.309 117.054 99.4385 119.438 96.1873C121.822 92.9372 125.458 90.002 129.783 88.1507C138.431 84.4497 146.556 86.4897 147.93 92.7084Z" fill="white"/>
<path d="M162.447 102.223C161.726 104.242 162.705 106.596 164.66 107.546L259.651 153.701C261.703 154.698 264.031 153.767 264.788 151.648L267.259 144.726C267.979 142.707 267.001 140.353 265.046 139.403L170.055 93.2483C168.003 92.2514 165.675 93.1822 164.918 95.3014L162.447 102.223Z" fill="white"/>
<path d="M148.965 92.6383C147.783 98.8964 153.926 106.752 162.685 110.185C165.695 111.365 168.622 111.868 171.216 111.768C176.17 111.576 180.034 98.4128 177.551 95.2366C175.068 92.0616 171.343 89.2399 166.963 87.523C158.204 84.0905 150.147 86.3801 148.965 92.6383Z" fill="white"/>
</svg>
