<svg width="59" height="59" viewBox="0 0 59 59" fill="none" xmlns="http://www.w3.org/2000/svg">
<path d="M29.0537 0C45.0997 0 58.1082 13.0078 58.1084 29.0537L58.0986 29.8037C57.701 45.5034 44.8492 58.1084 29.0537 58.1084L28.3037 58.0986C12.6044 57.7006 0 44.849 0 29.0537C0.000185543 13.0079 13.0079 0.000185555 29.0537 0ZM29.0537 7C22.811 7.00009 17.1742 9.59399 13.1621 13.7627C13.1659 13.7676 13.1698 13.7731 13.1738 13.7783C13.2377 13.8617 13.3315 13.984 13.4512 14.1396C13.6914 14.4521 14.0359 14.8994 14.4512 15.4355C15.2823 16.5087 16.397 17.938 17.5303 19.3652C18.6664 20.7961 19.8101 22.2095 20.7051 23.2588C20.8212 23.3949 20.9337 23.5217 21.0381 23.6416C21.4769 23.1795 21.9819 22.6223 22.5078 22.0381C23.1703 21.3022 23.8687 20.5208 24.4385 19.9189C24.7217 19.6197 25.0027 19.3336 25.251 19.1064C25.3734 18.9944 25.5177 18.869 25.6699 18.7568C25.7609 18.6899 26.0848 18.4484 26.5283 18.334L26.6553 18.3057C27.2809 18.1858 27.7724 18.3927 27.8848 18.4395C28.0916 18.5255 28.2588 18.6302 28.3623 18.6992C28.5782 18.8432 28.7923 19.0208 28.9766 19.1826C29.3585 19.5179 29.8265 19.9766 30.3271 20.4893C31.3383 21.5247 32.6051 22.9065 33.834 24.2734C34.9584 25.5242 36.0643 26.7784 36.9336 27.7715L42.1973 22.2012C42.7921 21.5716 43.8516 21.9452 43.9209 22.8086L45.0723 37.1436C45.1197 37.7347 44.6456 38.2374 44.0527 38.2236L29.6748 37.8857C28.8091 37.8652 28.377 36.8287 28.9717 36.1992L34.1748 30.6914C34.1723 30.6885 34.1695 30.6855 34.167 30.6826C33.2733 29.6597 32.0761 28.3006 30.8604 26.9482C29.6404 25.5913 28.4169 24.2591 27.4648 23.2842C27.3394 23.1557 27.2191 23.0364 27.1074 22.9248C26.6293 23.4393 26.0669 24.0635 25.4805 24.7148C24.8109 25.4586 24.1055 26.2371 23.5176 26.832C23.2276 27.1255 22.9267 27.4151 22.6504 27.6426C22.5153 27.7538 22.3401 27.8881 22.1436 28.0049C22.0297 28.0725 21.5678 28.3529 20.9453 28.3525C20.3458 28.352 19.9142 28.0844 19.835 28.0371C19.6737 27.9409 19.5409 27.8363 19.4521 27.7627C19.2685 27.6104 19.0806 27.4266 18.9102 27.251C18.5599 26.8901 18.1283 26.4022 17.6611 25.8545C16.7194 24.7504 15.5411 23.2927 14.3975 21.8525C13.2506 20.4082 12.1258 18.9652 11.2891 17.8848C11.0265 17.5457 10.792 17.2417 10.5938 16.9844C8.32185 20.4521 7.00007 24.5984 7 29.0537C7 41.2337 16.8738 51.1082 29.0537 51.1084C41.2338 51.1084 51.1084 41.2338 51.1084 29.0537C51.1082 16.8738 41.2337 7 29.0537 7Z" fill="#FB3C3C"/>
</svg>
