<svg width="42" height="40" viewBox="0 0 42 40" fill="none" xmlns="http://www.w3.org/2000/svg">
<path d="M19.2455 2.11565C19.7947 0.909673 20.0694 0.306684 20.4519 0.120997C20.784 -0.0403324 21.1741 -0.0403324 21.5062 0.120997C21.8887 0.306684 22.1634 0.909673 22.7126 2.11565L27.0875 11.7214C27.25 12.0779 27.3312 12.2562 27.4569 12.3927C27.568 12.5135 27.7039 12.6101 27.8555 12.6762C28.027 12.751 28.2254 12.7715 28.6221 12.8124L39.3085 13.9163C40.6502 14.0549 41.3209 14.1242 41.6196 14.4228C41.8789 14.6821 41.9994 15.0453 41.9453 15.4043C41.8832 15.8176 41.3821 16.2595 40.38 17.1435L32.3972 24.1841C32.1011 24.4453 31.9528 24.5761 31.8591 24.7351C31.7761 24.8761 31.7241 25.0323 31.7068 25.1939C31.6871 25.3767 31.7284 25.5675 31.8112 25.9495L34.0409 36.2374C34.3208 37.5291 34.4608 38.1748 34.2629 38.545C34.0909 38.8668 33.7754 39.0911 33.4098 39.1517C32.9889 39.2213 32.4046 38.8916 31.2359 38.232L21.9273 32.9774C21.5819 32.7823 21.4092 32.685 21.2255 32.6467C21.063 32.613 20.8951 32.613 20.7325 32.6467C20.5489 32.685 20.3762 32.7823 20.0308 32.9774L10.7223 38.232C9.55363 38.8916 8.96931 39.2213 8.5484 39.1517C8.18278 39.0911 7.86714 38.8668 7.69527 38.545C7.49743 38.1748 7.63738 37.5291 7.91732 36.2374L10.1469 25.9495C10.2297 25.5675 10.271 25.3767 10.2514 25.1939C10.234 25.0323 10.1821 24.8761 10.0991 24.7351C10.0052 24.5761 9.8571 24.4453 9.56085 24.1841L1.57827 17.1435C0.576101 16.2595 0.0750042 15.8176 0.0127023 15.4043C-0.0413908 15.0453 0.0791563 14.6821 0.338566 14.4228C0.637217 14.1242 1.30804 14.0549 2.64969 13.9163L13.3361 12.8124C13.7328 12.7715 13.9311 12.751 14.1026 12.6762C14.2543 12.6101 14.3901 12.5135 14.5013 12.3927C14.6269 12.2562 14.7081 12.0779 14.8705 11.7214L19.2455 2.11565Z" fill="#F5C838"/>
</svg>
