<svg width="170" height="128" viewBox="0 0 170 128" fill="none" xmlns="http://www.w3.org/2000/svg">
<path fill-rule="evenodd" clip-rule="evenodd" d="M98.2166 15.9274C98.2493 15.9408 103.185 17.956 109.593 21.6159C115.299 24.8753 122.174 29.6863 127.795 31.8551C142.688 37.6018 160.658 31.6165 167.127 40.3454C171.122 45.7369 170.977 50.54 166.522 63.5466C162.581 75.0522 153 89.9316 146.444 97.613C135.069 114.694 111.481 124.731 111.481 124.731C111.424 124.761 103.063 129.133 93.7722 126.251C84.9607 123.517 80.0144 111.868 80.0144 111.868C80.0721 111.817 86.1586 106.466 91.2693 97.2487C94.7128 96.9391 98.5528 96.9282 103.26 98.1676C111.215 100.263 116.269 106.41 120.194 108.828C122.41 110.192 124.256 106.711 122.09 99.3473C119.133 89.3016 106.777 82.3602 96.409 84.9948C99.0338 76.5522 100.601 67.1152 101.48 59.7643C104.424 59.9079 107.42 59.0245 110.102 56.4372C114.188 52.4964 111.335 49.1635 109.412 49.2301C107.011 49.3139 105.133 50.5963 102.312 50.9303C102.342 50.4775 102.368 50.0587 102.387 49.6774C103.521 27.9305 98.2166 15.9274 98.2166 15.9274ZM44.4324 14.153C64.6091 9.7975 66.9894 -2.63851 81.5896 0.502608C97.8953 4.01104 99.1031 32.2274 97.8953 53.9704C97.1368 67.6234 94.103 80.8958 85.0076 98.3376C80.9645 106.091 76.6127 110.597 67.5584 112.369C58.0141 114.236 50.172 108.994 50.115 108.956C50.085 108.939 27.7349 96.4304 18.2664 78.2389C12.5729 69.8978 4.64435 54.0766 1.9617 42.2145C-1.07091 28.8048 -0.697415 24.014 3.8533 19.0827C11.2216 11.0988 29.1844 17.4444 44.4324 14.153ZM80.3904 78.2126C82.362 69.4233 83.0386 65.9851 80.3885 67.5016C75.6929 70.189 68.5637 76.0565 59.1531 78.2126C49.9152 80.329 43.6082 78.4972 37.5418 77.7389C33.1292 77.1875 35.2672 80.9397 41.3308 87.6012C53.4496 100.914 76.3106 96.4004 80.3904 78.2126ZM129.698 56.5065C128.209 55.2869 123.92 56.2059 124.777 61.8171C126.279 71.6407 136.894 73.1888 143.357 72.4372C145.993 72.1306 146.591 69.9849 145.625 69.0202C144.104 67.5026 142.755 67.9812 137.669 64.8512C132.739 61.8176 132.335 58.6678 129.698 56.5065ZM42.5896 43.5426C34.7343 37.8912 25.6153 40.4822 22.5769 51.9889C21.526 55.9691 23.9403 56.4912 25.4392 55.1188C27.4998 53.2322 29.204 52.1993 33.2068 50.5456C37.2846 48.8609 40.5025 48.4725 43.0555 47.7467C44.3976 47.3649 45.7315 45.8032 42.5896 43.5426ZM81.8416 36.9128C75.8305 29.3294 66.3514 29.3294 60.283 39.5671C58.184 43.1082 60.3634 44.2703 62.1805 43.36C64.6783 42.1087 66.5998 41.581 70.9021 41.0846C75.2851 40.579 78.4863 41.0847 81.1404 41.0846C82.5359 41.0845 84.2464 39.9468 81.8416 36.9128Z" fill="white"/>
</svg>
