<svg width="222" height="40" viewBox="0 0 222 40" fill="none" xmlns="http://www.w3.org/2000/svg">
<rect width="39.4781" height="39.4781" fill="#00B67B"/>
<path d="M19.7399 5.64062L22.9054 15.383H33.1492L24.8618 21.4041L28.0273 31.1465L19.7399 25.1254L11.4526 31.1465L14.6181 21.4041L6.33069 15.383H16.5744L19.7399 5.64062Z" fill="white"/>
<rect x="45.6309" width="39.4781" height="39.4781" fill="#00B67B"/>
<path d="M65.3688 5.64062L68.5343 15.383H78.7781L70.4907 21.4041L73.6562 31.1465L65.3688 25.1254L57.0815 31.1465L60.247 21.4041L51.9596 15.383H62.2033L65.3688 5.64062Z" fill="white"/>
<rect x="91.2617" width="39.4781" height="39.4781" fill="#00B67B"/>
<path d="M111 5.64062L114.165 15.383H124.409L116.122 21.4041L119.287 31.1465L111 25.1254L102.712 31.1465L105.878 21.4041L97.5905 15.383H107.834L111 5.64062Z" fill="white"/>
<rect x="136.891" width="39.4781" height="39.4781" fill="#00B67B"/>
<path d="M156.631 5.64062L159.796 15.383H170.04L161.752 21.4041L164.918 31.1465L156.631 25.1254L148.343 31.1465L151.509 21.4041L143.221 15.383H153.465L156.631 5.64062Z" fill="white"/>
<rect x="182.521" width="39.4781" height="39.4781" fill="#323232"/>
<path d="M202.261 5.64062L205.427 15.383H215.671L207.383 21.4041L210.549 31.1465L202.261 25.1254L193.974 31.1465L197.14 21.4041L188.852 15.383H199.096L202.261 5.64062Z" fill="white"/>
</svg>
