<svg width="433" height="77" viewBox="0 0 433 77" fill="none" xmlns="http://www.w3.org/2000/svg">
<rect width="77" height="77" fill="#00B67B"/>
<path d="M38.5 11L44.6741 30.002H64.6541L48.49 41.7459L54.6641 60.748L38.5 49.0041L22.3359 60.748L28.51 41.7459L12.3459 30.002H32.3259L38.5 11Z" fill="white"/>
<rect x="89" width="77" height="77" fill="#00B67B"/>
<path d="M127.5 11L133.674 30.002H153.654L137.49 41.7459L143.664 60.748L127.5 49.0041L111.336 60.748L117.51 41.7459L101.346 30.002H121.326L127.5 11Z" fill="white"/>
<rect x="178" width="77" height="77" fill="#00B67B"/>
<path d="M216.5 11L222.674 30.002H242.654L226.49 41.7459L232.664 60.748L216.5 49.0041L200.336 60.748L206.51 41.7459L190.346 30.002H210.326L216.5 11Z" fill="white"/>
<rect x="267" width="77" height="77" fill="#00B67B"/>
<path d="M305.5 11L311.674 30.002H331.654L315.49 41.7459L321.664 60.748L305.5 49.0041L289.336 60.748L295.51 41.7459L279.346 30.002H299.326L305.5 11Z" fill="white"/>
<rect x="356" width="77" height="77" fill="#00B67B"/>
<path d="M394.5 11L400.674 30.002H420.654L404.49 41.7459L410.664 60.748L394.5 49.0041L378.336 60.748L384.51 41.7459L368.346 30.002H388.326L394.5 11Z" fill="white"/>
</svg>
