<svg width="216" height="148" viewBox="0 0 216 148" fill="none" xmlns="http://www.w3.org/2000/svg">
<path d="M119.828 63.8391C127.316 68.5437 127.316 79.4563 119.828 84.1609L52.384 126.535C44.3925 131.556 34 125.812 34 116.374V31.6256C34 22.1876 44.3925 16.4437 52.384 21.4647L119.828 63.8391Z" fill="white"/>
<path d="M148.999 5C186.002 5 215.999 34.9969 215.999 72C215.999 109.003 186.002 139 148.999 139C126.092 139 105.873 127.503 93.79 109.967L124.083 90.9346C136.563 83.0935 136.563 64.9065 124.083 57.0654L91.9375 36.8682C92.8048 35.4625 93.7227 34.091 94.6885 32.7568C106.861 15.9402 126.652 5 148.999 5ZM149.5 114C147.015 114 145 116.015 145 118.5V123.5C145 125.985 147.015 128 149.5 128C151.985 128 154 125.985 154 123.5V118.5C154 116.015 151.985 114 149.5 114ZM149.443 36C146.958 36.0002 144.944 38.015 144.943 40.5V72.9287L146.973 74.2607L169.028 88.7598C171.105 90.1248 173.895 89.5482 175.26 87.4717C176.625 85.3949 176.048 82.6044 173.972 81.2393L153.944 68.0732L153.943 40.5C153.943 38.015 151.928 36.0002 149.443 36ZM121.445 82.9512C121.248 83.1261 121.043 83.2957 120.831 83.46C120.804 83.4813 120.775 83.5013 120.747 83.5225C121.03 83.3066 121.301 83.0811 121.559 82.8467C121.521 82.8812 121.484 82.917 121.445 82.9512ZM196.5 68C194.015 68 192 70.0147 192 72.5C192 74.9853 194.015 77 196.5 77H201.5C203.985 77 206 74.9853 206 72.5C206 70.0147 203.985 68 201.5 68H196.5ZM124.999 70.7402L125.092 71.0957C125.063 70.9768 125.031 70.8584 124.998 70.7402L124.895 70.3867C124.931 70.5041 124.966 70.6219 124.999 70.7402ZM124.039 68.3379C124.06 68.3763 124.079 68.4155 124.099 68.4541C124.021 68.3048 123.941 68.1563 123.857 68.0098H123.858C123.921 68.1182 123.98 68.2278 124.039 68.3379ZM120.831 64.54C121.043 64.7043 121.248 64.8739 121.445 65.0488C121.482 65.0817 121.518 65.1161 121.555 65.1494C121.287 64.9066 121.006 64.673 120.711 64.4502C120.751 64.4803 120.792 64.5095 120.831 64.54ZM149.5 15C147.015 15 145 17.0147 145 19.5V24.5C145 26.9853 147.015 29 149.5 29C151.985 29 154 26.9853 154 24.5V19.5C154 17.0147 151.985 15 149.5 15Z" fill="white"/>
</svg>
